<svg xmlns="http://www.w3.org/2000/svg" viewBox="0 0 127.9 69.3">
    <style type="text/css">
        .st0{fill:#FBBA00;}
        .st1{clip-path:url(#SVGID_2_);fill:#F9CF65;}
        .st2{fill:#FFFFFF;}
    </style>
    <path d="M75.7 5.1l25.1 22.4c0.3 0.3 0.7 0.4 1.1 0.4h8.1c5 0 8.9 3.4 9.7 8.4l1.1 7.2c0 0 0 0 0 0 0.4 2.5-0.2 4.8-1.6 6.4-2.8 3.3-8.3 3.8-11.3 3.8h-0.1c-0.8 0-1.5 0.6-1.7 1.5-0.7 5.2-5.2 9.1-10.4 9.1-5.2 0-9.7-3.9-10.4-9.1-0.1-0.8-0.8-1.4-1.7-1.4H44.1c-0.8 0-1.5 0.6-1.7 1.5-0.7 5.2-5.2 9.1-10.4 9.1-5.2 0-9.7-3.9-10.4-9.1-0.1-0.8-0.8-1.4-1.7-1.4h-2.6c-2.5 0-4.6-0.9-6.2-2.7-3.4-3.8-4.4-11.8-3.1-23.6C10.3 9 19.2 5.6 20.3 5.2l0.4-0.1H75.7M76.8 2.1H75.7 20.7h-0.2l-0.2 0-0.4 0.1-0.3 0-0.2 0.1C17.4 3 7.4 7.2 5.1 27c-1.5 12.9-0.2 21.4 3.8 25.9 2.1 2.4 5.1 3.7 8.4 3.7h1.5c1.4 6.1 6.8 10.5 13.2 10.5 6.3 0 11.8-4.4 13.2-10.5h37.4c1.4 6.1 6.8 10.5 13.2 10.5 6.3 0 11.8-4.4 13.2-10.5 4.2-0.1 9.5-1.1 12.6-4.8 2-2.3 2.8-5.2 2.3-8.6v0l0-0.2-1.1-7.2c-1-6.5-6.2-11-12.6-11h-7.6L77.7 2.9 76.8 2.1 76.8 2.1z"/>
    <path class="st0" d="M44.1 53.6h39.6c0.8 0 1.6 0.6 1.7 1.5 0.7 5.2 5.2 9.1 10.4 9.1 5.2 0 9.7-3.9 10.4-9.1 0.1-0.8 0.8-1.4 1.7-1.4h0.1c3 0 8.5-0.5 11.3-3.7 1.4-1.6 2-3.8 1.6-6.4 0 0 0 0 0 0l-1.1-7.2c-0.8-5-4.6-8.4-9.7-8.4h-8.1c-0.4 0-0.8-0.1-1.1-0.4L75.7 5.1H20.7L20.3 5.2c-1.1 0.4-10 3.8-12.1 22.1-1.4 11.8-0.3 19.8 3.1 23.6 1.6 1.8 3.7 2.7 6.2 2.7h2.6c0.8 0 1.6 0.6 1.7 1.5 0.7 5.2 5.2 9.1 10.4 9.1 5.2 0 9.7-3.9 10.4-9.1C42.5 54.2 43.2 53.6 44.1 53.6z"/>
    <defs>
        <path d="M44.1 53.6h39.6c0.8 0 1.6 0.6 1.7 1.5 0.7 5.2 5.2 9.1 10.4 9.1 5.2 0 9.7-3.9 10.4-9.1 0.1-0.8 0.8-1.4 1.7-1.4h0.1c3 0 8.5-0.5 11.3-3.7 1.4-1.6 2-3.8 1.6-6.4 0 0 0 0 0 0l-1.1-7.2c-0.8-5-4.6-8.4-9.7-8.4h-8.1c-0.4 0-0.8-0.1-1.1-0.4L75.7 5.1H20.7L20.3 5.2c-1.1 0.4-10 3.8-12.1 22.1-1.4 11.8-0.3 19.8 3.1 23.6 1.6 1.8 3.7 2.7 6.2 2.7h2.6c0.8 0 1.6 0.6 1.7 1.5 0.7 5.2 5.2 9.1 10.4 9.1 5.2 0 9.7-3.9 10.4-9.1C42.5 54.2 43.2 53.6 44.1 53.6z"/>
    </defs>
    <path class="st1" d="M120.8 43.5l-1.1-7.2c-0.8-5-4.6-8.4-9.7-8.4h-8.1c-0.4 0-0.8-0.1-1.1-0.4L75.7 5.1H20.7L20.3 5.2c-0.2 0.1-0.6 0.2-1.1 0.5C31.7 17 50.3 27.9 72.3 35.9c17.2 6.2 33.9 9.8 48.4 10.7C120.9 45.6 121 44.6 120.8 43.5 120.8 43.5 120.8 43.5 120.8 43.5z"/>
    <path class="st2" d="M56.8 23.4c0.3-1 0.8-1.8 1.4-2.5 0.6-0.7 1.4-1.3 2.4-1.7 0.9-0.4 2-0.6 3.2-0.6 1 0 1.9 0.1 2.8 0.4 0.9 0.3 1.6 0.7 2.3 1.3 0.6 0.5 1.2 1.2 1.5 2s0.6 1.8 0.6 2.8c0 1-0.2 1.9-0.5 2.7-0.3 0.8-0.7 1.5-1.2 2.1-0.5 0.6-1.1 1.2-1.8 1.7-0.7 0.5-1.3 1-2 1.4-0.7 0.4-1.4 0.9-2.1 1.3s-1.3 0.9-1.9 1.3c-0.6 0.5-1.1 1-1.5 1.5-0.4 0.5-0.7 1.2-0.8 1.9h11.7v2.4H55.8c0.1-1.3 0.4-2.5 0.7-3.4 0.4-0.9 0.9-1.8 1.4-2.5 0.6-0.7 1.2-1.3 2-1.9 0.7-0.5 1.5-1 2.3-1.5 1-0.6 1.8-1.1 2.5-1.6s1.3-1 1.8-1.5c0.5-0.5 0.8-1.1 1.1-1.7 0.3-0.6 0.4-1.3 0.4-2.1 0-0.6-0.1-1.2-0.3-1.7-0.2-0.5-0.5-0.9-0.9-1.3-0.4-0.4-0.9-0.6-1.4-0.8-0.5-0.2-1.1-0.3-1.7-0.3-0.8 0-1.5 0.2-2 0.5-0.6 0.3-1 0.8-1.4 1.3-0.4 0.5-0.6 1.1-0.8 1.8-0.2 0.7-0.2 1.4-0.2 2h-2.7C56.4 25.5 56.5 24.4 56.8 23.4z"/>
</svg>
