<svg xmlns="http://www.w3.org/2000/svg" viewBox="0 0 127.9 69.3">
    <style type="text/css">
        .st0{fill:#555AA4;}
        .st1{fill:#6A70A3;}
        .st2{fill:#FFFFFF;}
    </style>
    <path d="M74.8 5.1l0.2 0.2c0.7 0.6 7 6.1 11.2 11.6 2.8 3.8 4.4 5.2 5 5.7 0.2 0.2 0.5 0.3 0.8 0.3 7.3 0.7 16.3 2 19.4 3.4 3 1.3 4.1 4.5 4.5 6.9 0.1 0.6 0.5 1.1 1.1 1.2 0.7 0.2 1.3 0.6 1.9 1.1 1.6 1.8 2.1 5.4 1.5 10.7 -0.5 4.5-8.2 6.2-14.5 6.8 -0.2 0-0.5 0-0.9 0.1 -0.7 0-1.3 0.5-1.4 1.2 -1.1 5.4-6 9.4-11.6 9.4 -5.5 0-10.3-3.9-11.5-9.3 -0.1-0.7-0.8-1.2-1.5-1.2 -9.4 0-19.7 0-28.1-0.1 0 0 0 0 0 0 -0.7 0-1.3 0.5-1.4 1.2 -1 5.5-6 9.7-11.6 9.7 -5.6 0-10.4-4-11.6-9.4 -0.1-0.7-0.7-1.2-1.4-1.2 -5-0.2-10.9-1.6-10.9-6.8 0-2.4-0.1-4.2-0.3-5.4 -0.1-0.6-0.6-1.1-1.3-1.2 -1.5-0.2-2.7-0.9-3.6-2.1 -1.9-2.6-1.9-7.3-0.1-13.6 1.9-6.3 4.5-9.5 7.8-9.5 0.9 0 1.8 0.3 2.7 0.8 0.2 0.1 0.5 0.2 0.7 0.2 0.5 0 0.9-0.2 1.2-0.6 4.8-6.3 9.2-10.1 11.8-10.1L74.8 5.1M76 2.1l-1.1 0L32.8 2.2c-4.4 0-9.6 5.4-13.4 10.3 -1-0.4-2-0.6-3-0.6 -4.7 0-8.3 3.9-10.6 11.6 -2.2 7.3-2 12.8 0.5 16.2 1.1 1.5 2.7 2.6 4.5 3.1 0.1 0.8 0.2 2.1 0.2 3.9 0 3.3 1.7 8.9 12.6 9.8 1.8 6.3 7.6 10.7 14.2 10.7 6.6 0 12.6-4.6 14.3-10.9 10.1 0.1 18.6 0.1 25.8 0.1 1.9 6.1 7.7 10.4 14.2 10.4 6.6 0 12.4-4.4 14.2-10.7 0 0 0 0 0 0 10.8-1.1 16.6-4.3 17.2-9.5 0.7-6.2 0-10.5-2.3-13 -0.7-0.8-1.5-1.4-2.4-1.7 -0.9-4-3-6.9-6.1-8.2 -4.1-1.8-14.9-3.1-19.8-3.6 -0.6-0.5-1.9-1.9-4.2-4.9C84.2 9.3 77.7 3.7 77 3l-0.2-0.2L76 2.1 76 2.1z"/>
    <path class="st0" d="M16.4 14.9c-3.3 0-5.9 3.2-7.8 9.5 -1.9 6.3-1.9 11 0.1 13.6 0.9 1.2 2.1 1.9 3.6 2.1 0.6 0.1 1.2 0.6 1.3 1.2 0.2 1.2 0.3 3 0.3 5.4 0 5.2 5.9 6.6 10.9 6.9 0.7 0 1.3 0.5 1.4 1.2 1.1 5.5 6 9.4 11.6 9.4 5.6 0 10.6-4.2 11.6-9.7 0.1-0.7 0.8-1.3 1.5-1.2 8.5 0 18.8 0.1 28.2 0.1 0.7 0 1.3 0.5 1.5 1.2 1.2 5.4 6.1 9.3 11.5 9.3 5.6 0 10.4-3.9 11.6-9.4 0.1-0.7 0.7-1.2 1.4-1.2 0.4 0 0.7 0 0.9 0 6.4-0.6 14-2.3 14.5-6.8 0.6-5.3 0.1-8.9-1.5-10.6 -0.5-0.6-1.1-1-1.8-1.1 -0.6-0.1-1-0.6-1.1-1.2 -0.4-2.4-1.5-5.6-4.5-6.9 -3.1-1.4-12.1-2.6-19.4-3.4 -0.3 0-0.6-0.1-0.8-0.3 -0.7-0.5-2.2-2-5-5.7C82 11.4 75.7 5.9 75 5.3l-0.2-0.2L32.8 5.2c-2.6 0-7 3.8-11.8 10.1 -0.4 0.6-1.3 0.8-1.9 0.4C18.2 15.1 17.3 14.9 16.4 14.9z"/>
    <path class="st1" d="M120.4 46.4c0 0 0-0.1 0-0.1 0.6-5.3 0.1-8.9-1.5-10.6 -0.5-0.6-1.1-1-1.8-1.1 -0.6-0.1-1-0.6-1.1-1.2 -0.4-2.4-1.5-5.6-4.5-6.9 -3.1-1.4-12.1-2.6-19.4-3.4 -0.3 0-0.6-0.1-0.8-0.3 -0.7-0.5-2.2-2-5-5.7C82 11.4 75.7 5.9 75 5.3l-0.2-0.2L32.8 5.2c-2.3 0-5.9 2.9-10 7.8 11 8.9 26.1 17.3 43.7 23.7C86.2 43.8 105.4 47 120.4 46.4z"/>
    <path class="st2" d="M61.3 28.3c0.1 0 0.2 0 0.3 0h0.6c0.6 0 1.1-0.1 1.7-0.2 0.5-0.2 1-0.4 1.4-0.7 0.4-0.3 0.7-0.7 0.9-1.2 0.2-0.5 0.4-1 0.4-1.6 0-1.2-0.4-2.1-1.1-2.7 -0.8-0.6-1.7-0.9-2.9-0.9 -0.7 0-1.4 0.1-1.9 0.4s-1 0.6-1.3 1.1c-0.3 0.5-0.6 1-0.8 1.6 -0.2 0.6-0.3 1.2-0.3 1.9H55.5c0-1.1 0.2-2.1 0.5-3 0.3-0.9 0.8-1.7 1.3-2.3 0.6-0.6 1.3-1.1 2.2-1.5 0.9-0.4 1.9-0.5 3-0.5 1 0 1.9 0.1 2.7 0.4 0.8 0.3 1.6 0.6 2.2 1.1 0.6 0.5 1.1 1.1 1.5 1.9 0.4 0.8 0.5 1.7 0.5 2.7 0 1-0.3 1.9-0.9 2.7 -0.6 0.8-1.3 1.4-2.2 1.8v0.1c1.4 0.3 2.4 1 3.1 2 0.7 1 1 2.2 1 3.6 0 1.1-0.2 2.1-0.6 3s-1 1.6-1.7 2.2 -1.5 1-2.5 1.3c-0.9 0.3-2 0.4-3 0.4 -1.1 0-2.2-0.2-3.1-0.5 -0.9-0.3-1.7-0.8-2.4-1.4 -0.7-0.6-1.2-1.4-1.5-2.3 -0.3-0.9-0.5-2-0.5-3.1h2.7c0 1.5 0.5 2.7 1.3 3.6 0.8 0.9 2 1.4 3.6 1.4 0.7 0 1.3-0.1 1.9-0.3 0.6-0.2 1.1-0.5 1.6-0.9s0.8-0.8 1.1-1.4c0.3-0.5 0.4-1.2 0.4-1.8 0-0.7-0.1-1.3-0.4-1.9 -0.3-0.5-0.6-1-1-1.4 -0.4-0.4-0.9-0.6-1.5-0.8 -0.6-0.2-1.2-0.3-1.9-0.3 -0.6 0-1.1 0-1.6 0.1v-2.3C61.2 28.3 61.2 28.3 61.3 28.3z"/>
</svg>
