<svg xmlns="http://www.w3.org/2000/svg" viewBox="0 0 127.9 69.3">
    <style type="text/css">
        .st0{fill:#ED6EA7;}
        .st1{clip-path:url(#SVGID_2_);fill:#EAA4C7;}
        .st2{fill:#FFFFFF;}
    </style>
    <path d="M63.9 5.1c23.8 0 35.8 15.2 39 19.9 0.3 0.5 0.8 0.8 1.4 0.8 1.9 0.2 18.4 2.6 18.4 17.4 0 2.3-1 10-14.5 10.8 -0.8 0.1-1.5 0.6-1.7 1.4 -1.5 5.1-6.4 8.7-11.7 8.7 -5.3 0-10.1-3.6-11.7-8.6 -0.2-0.8-1-1.4-1.8-1.4H65.2h-1.2H46.8c-0.8 0-1.6 0.6-1.8 1.4 -1.5 5.1-6.4 8.6-11.7 8.7 -5.4 0-10.2-3.6-11.7-8.7 -0.2-0.8-0.9-1.3-1.7-1.4C6.3 53.3 5.3 45.6 5.3 43.3c0-14.8 16.5-17.2 18.4-17.4 0.6-0.1 1.1-0.4 1.4-0.8C28.1 20.4 40.1 5.2 63.9 5.1M64 2.1L64 2.1 64 2.1c-24.7 0-37.5 15.4-41.2 20.8 -1.8 0.3-6.2 1.1-10.5 3.6 -6.5 3.7-10 9.5-10 16.8 0 2.1 0.8 12.6 16.7 13.7 2.1 6 7.9 10.1 14.4 10.1 6.4 0 12.1-4.1 14.3-10h16.4 1.3 15.1c2.2 5.9 7.9 10 14.3 10 6.4 0 12.2-4.1 14.4-10.1 6.3-0.5 10.9-2.4 13.7-5.8 2.5-3 2.9-6.3 2.9-7.9 0-7.3-3.5-13.1-10-16.8 -4.3-2.4-8.7-3.3-10.5-3.5C101.4 17.6 88.6 2.2 64 2.1L64 2.1z"/>
    <path class="st0" d="M108.1 54.1c-0.8 0.1-1.5 0.6-1.7 1.4 -1.5 5.1-6.4 8.7-11.7 8.7 -5.3 0-10.1-3.6-11.7-8.6 -0.2-0.8-1-1.4-1.8-1.4H65.2h-1.2H46.8c-0.8 0-1.6 0.6-1.8 1.4 -1.5 5.1-6.4 8.6-11.7 8.7 -5.4 0-10.2-3.6-11.7-8.7 -0.2-0.8-0.9-1.3-1.7-1.4C6.3 53.3 5.3 45.6 5.3 43.3c0-14.8 16.5-17.2 18.4-17.4 0.6-0.1 1.1-0.4 1.4-0.8 3.1-4.7 15.1-19.9 39-19.9 23.8 0 35.8 15.2 39 19.9 0.3 0.5 0.8 0.8 1.4 0.8 1.9 0.2 18.4 2.6 18.4 17.4C122.6 45.6 121.6 53.3 108.1 54.1z"/>
    <defs>
        <path d="M108.1 54.1c-0.8 0.1-1.5 0.6-1.7 1.4 -1.5 5.1-6.4 8.7-11.7 8.7 -5.3 0-10.1-3.6-11.7-8.6 -0.2-0.8-1-1.4-1.8-1.4H65.2h-1.2H46.8c-0.8 0-1.6 0.6-1.8 1.4 -1.5 5.1-6.4 8.6-11.7 8.7 -5.4 0-10.2-3.6-11.7-8.7 -0.2-0.8-0.9-1.3-1.7-1.4C6.3 53.3 5.3 45.6 5.3 43.3c0-14.8 16.5-17.2 18.4-17.4 0.6-0.1 1.1-0.4 1.4-0.8 3.1-4.7 15.1-19.9 39-19.9 23.8 0 35.8 15.2 39 19.9 0.3 0.5 0.8 0.8 1.4 0.8 1.9 0.2 18.4 2.6 18.4 17.4C122.6 45.6 121.6 53.3 108.1 54.1z"/>
    </defs>
    <path class="st1" d="M104.3 25.9c-0.6-0.1-1.1-0.4-1.4-0.8C99.8 20.4 87.8 5.2 63.9 5.1c-15.7 0-26.3 6.6-32.6 12.5 9.9 5.6 21 10.7 33 15 20.7 7.5 40.9 11.6 58.1 12.4 0.1-0.7 0.2-1.3 0.2-1.8C122.6 28.5 106.2 26.1 104.3 25.9z"/>
    <path class="st2" d="M63.5 41.2V25h-5.9V22.8c0.8 0 1.5-0.1 2.2-0.2 0.7-0.1 1.4-0.3 2-0.7 0.6-0.3 1.1-0.8 1.5-1.3 0.4-0.5 0.7-1.3 0.8-2.1h2.1v22.7H63.5z"/>
</svg>
