<svg id="Layer_1" xmlns="http://www.w3.org/2000/svg" xmlns:xlink="http://www.w3.org/1999/xlink" viewBox="0 0 500 146.8"><style>.st10{fill:#159033}</style><g id="So_Schofield_Logo_1_"><path d="M252 95.7h33.3c.6 0 1 .4 1 .9a7.6 7.6 0 0 0 15.1 0c.1-.6.6-1 1-1h14v-7c0-5-11.2-7.7-21-8.6l-.4-.1-15.5-10h-38c-1.2.4-14.6 4-17.8 15-.8 2.8-.6 5.2.8 7 2.5 3.3 8.2 3.8 10.5 3.8.5 0 1 .4 1 .9a7.6 7.6 0 0 0 7.5 6.2c3.7 0 6.8-2.7 7.5-6.2.1-.6.5-1 1-1z" fill="#0382ac"/><path d="M294 105a9.7 9.7 0 0 1-9.5-7.2h-31.6a9.8 9.8 0 0 1-18.8 0c-3.3-.2-8.6-1-11.3-4.7-1.8-2.4-2.2-5.4-1.1-8.9C225.3 72 240.4 68 241 68h.5l.1-.1h38.2c.2 0 .4 0 .6.2l15.5 10c7 .6 22.6 2.8 22.6 10.6v8.1c0 .6-.4 1-1 1h-14.2a9.7 9.7 0 0 1-9.4 7.4zm-42-9.3h33.3c.6 0 1 .4 1 .9a7.6 7.6 0 0 0 15.1 0c.1-.6.6-1 1-1h14v-7c0-5-11.2-7.7-21-8.6l-.4-.1-15.5-10h-38c-1.2.4-14.6 4-17.8 15-.8 2.8-.6 5.2.8 7 2.5 3.3 8.2 3.8 10.5 3.8.5 0 1 .4 1 .9a7.6 7.6 0 0 0 7.5 6.2c3.7 0 6.8-2.7 7.5-6.2.1-.6.5-1 1-1z"/><defs><path id="SVGID_1_" d="M252 95.7h33.3c.6 0 1 .4 1 .9a7.6 7.6 0 0 0 15.1 0c.1-.6.6-1 1-1h14v-7c0-5-11.2-7.7-21-8.6l-.4-.1-15.5-10h-38c-1.2.4-14.6 4-17.8 15-.8 2.8-.6 5.2.8 7 2.5 3.3 8.2 3.8 10.5 3.8.5 0 1 .4 1 .9a7.6 7.6 0 0 0 7.5 6.2c3.7 0 6.8-2.7 7.5-6.2.1-.6.5-1 1-1z"/></defs><clipPath id="SVGID_2_"><use xlink:href="#SVGID_1_" overflow="visible"/></clipPath><path d="M258.9 82a134.7 134.7 0 0 0 57.5 9v-2.4c0-5-11.3-7.8-21-8.6l-.4-.1-15.5-10h-38c-.5.2-2.6.7-5.3 2 7 3.7 14.5 7.1 22.7 10z" clip-path="url(#SVGID_2_)" fill="#4d9baf"/><path d="M141.7 95.6h31.9c.5 0 1 .4 1 1 .3 1.5 1 3 2.1 4.1a7.6 7.6 0 0 0 5.4 2.3c3.8 0 7-2.7 7.6-6.4 0-.5.5-.9 1-.9h14v-.4a13 13 0 0 0-3.2-10.3c-4.1-4.4-11.2-5-15-5h-1.4a1 1 0 0 1-.8-.3c-5.1-5.1-12.2-10.5-16.7-10.5h-22c-8.2 0-14.3 7.4-16 9.6a1 1 0 0 1-.9.4c-8 0-13.3 1.8-16 5.6-3.1 4.6-1 10.2-1 10.4l.2.3h13.5c.5 0 1 .4 1 1a7.2 7.2 0 0 0 14.2 0c.1-.5.5-1 1-1z" fill="#f50003"/><path d="M182.2 105c-2.7 0-5.1-1-7-2.8a9.7 9.7 0 0 1-2.5-4.5h-30.2a9.3 9.3 0 0 1-18 0h-13.4a1 1 0 0 1-1-.7l-.3-1c-.1-.3-2.6-6.9 1.2-12.4 3-4.3 8.8-6.5 17.2-6.5 2.3-2.8 8.7-10 17.5-10h21.9c6.2 0 14.9 7.8 17.9 10.7h1c4.2 0 11.9.8 16.6 5.8 2.8 3 4 7 3.7 11.8l-.1 1.4c0 .6-.5 1-1 1h-14.1a9.8 9.8 0 0 1-9.4 7.3zm-40.5-9.4h31.9c.5 0 1 .4 1 1 .3 1.5 1 3 2.1 4.1a7.6 7.6 0 0 0 5.4 2.3c3.8 0 7-2.7 7.6-6.4 0-.5.5-.9 1-.9h14v-.4a13 13 0 0 0-3.2-10.3c-4.1-4.4-11.2-5-15-5h-1.4a1 1 0 0 1-.8-.3c-5.1-5.1-12.2-10.5-16.7-10.5h-22c-8.2 0-14.3 7.4-16 9.6a1 1 0 0 1-.9.4c-8 0-13.3 1.8-16 5.6-3.1 4.6-1 10.2-1 10.4l.2.3h13.5c.5 0 1 .4 1 1a7.2 7.2 0 0 0 14.2 0c.1-.5.5-1 1-1z"/><defs><path id="SVGID_3_" d="M141.7 95.6h31.9c.5 0 1 .4 1 1 .3 1.5 1 3 2.1 4.1a7.6 7.6 0 0 0 5.4 2.3c3.8 0 7-2.7 7.6-6.4 0-.5.5-.9 1-.9h14v-.4a13 13 0 0 0-3.2-10.3c-4.1-4.4-11.2-5-15-5h-1.4a1 1 0 0 1-.8-.3c-5.1-5.1-12.2-10.5-16.7-10.5h-22c-8.2 0-14.3 7.4-16 9.6a1 1 0 0 1-.9.4c-8 0-13.3 1.8-16 5.6-3.1 4.6-1 10.2-1 10.4l.2.3h13.5c.5 0 1 .4 1 1a7.2 7.2 0 0 0 14.2 0c.1-.5.5-1 1-1z"/></defs><clipPath id="SVGID_4_"><use xlink:href="#SVGID_3_" overflow="visible"/></clipPath><path d="M152.5 82.4c20 7.2 39 10.1 52 8.5-.5-2.3-1.5-4.3-3-5.9-4.1-4.4-11.2-5-15-5h-1.4a1 1 0 0 1-.8-.3c-5.2-5.1-12.3-10.5-16.7-10.5h-22c-4.8 0-9 2.5-11.9 5.1a168.7 168.7 0 0 0 18.8 8z" clip-path="url(#SVGID_4_)" fill="#e13b4e"/><path d="M442.3 96.4h24.8c.5 0 1 .4 1 .9a6.6 6.6 0 0 0 6.5 5.7c3.3 0 6.1-2.5 6.5-5.7.1-.5.6-1 1-1h.2c1.9 0 5.3-.2 7-2.3 1-1 1.3-2.4 1-4l-.6-4.5a6 6 0 0 0-6-5.2h-5.1a1 1 0 0 1-.7-.3L462 66H427.4c-.7.3-6.2 2.5-7.6 14-.8 7.3-.2 12.3 2 14.7a5 5 0 0 0 3.8 1.7h1.6c.6 0 1 .4 1 .9a6.6 6.6 0 0 0 6.6 5.7c3.2 0 6-2.5 6.5-5.7 0-.5.5-1 1-1z" fill="#ffb300"/><path d="M474.6 105c-4 0-7.4-2.7-8.4-6.5h-23a8.7 8.7 0 0 1-8.4 6.6c-4 0-7.5-2.8-8.4-6.6h-.8c-2.2 0-4-.8-5.4-2.4-2.6-3-3.4-8.3-2.5-16.4.7-5.5 2.3-9.8 5-12.7 2-2.3 4-3 4.2-3h35.7c.2 0 .4 0 .6.2l15.8 14h4.6a8 8 0 0 1 8.2 7l.6 4.5c.4 2.2-.1 4.2-1.4 5.7-2.1 2.4-5.6 3-8 3a8.7 8.7 0 0 1-8.4 6.7zm-32.3-8.6h24.8c.5 0 1 .4 1 .9a6.6 6.6 0 0 0 6.5 5.7c3.3 0 6.1-2.5 6.5-5.7.1-.5.6-1 1-1h.2c1.9 0 5.3-.2 7-2.3 1-1 1.3-2.4 1-4l-.6-4.5a6 6 0 0 0-6-5.2h-5.1a1 1 0 0 1-.7-.3L462 66H427.4c-.7.3-6.2 2.5-7.6 14-.8 7.3-.2 12.3 2 14.7a5 5 0 0 0 3.8 1.7h1.6c.6 0 1 .4 1 .9a6.6 6.6 0 0 0 6.6 5.7c3.2 0 6-2.5 6.5-5.7 0-.5.5-1 1-1z"/><defs><path id="SVGID_5_" d="M442.3 96.4h24.8c.5 0 1 .4 1 .9a6.6 6.6 0 0 0 6.5 5.7c3.3 0 6.1-2.5 6.5-5.7.1-.5.6-1 1-1h.2c1.9 0 5.3-.2 7-2.3 1-1 1.3-2.4 1-4l-.6-4.5a6 6 0 0 0-6-5.2h-5.1a1 1 0 0 1-.7-.3L462 66H427.4c-.7.3-6.2 2.5-7.6 14-.8 7.3-.2 12.3 2 14.7a5 5 0 0 0 3.8 1.7h1.6c.6 0 1 .4 1 .9a6.6 6.6 0 0 0 6.6 5.7c3.2 0 6-2.5 6.5-5.7 0-.5.5-1 1-1z"/></defs><clipPath id="SVGID_6_"><use xlink:href="#SVGID_5_" overflow="visible"/></clipPath><path d="M490.4 90l-.7-4.5a6 6 0 0 0-6-5.2h-5.1a1 1 0 0 1-.7-.3l-15.7-14h-34.8l-.6.4c7.8 7 19.4 13.9 33.2 18.9a112 112 0 0 0 30.3 6.7c.2-.6.2-1.3 0-2z" clip-path="url(#SVGID_6_)" fill="#f7ca49"/><path d="M16.4 68.5c-2.3 0-4.1 2.2-5.4 6.6-1.4 4.4-1.3 7.7 0 9.5.6.9 1.5 1.4 2.5 1.5.5 0 .8.4 1 .9l.1 3.7c0 3.7 4.2 4.7 7.6 4.8.5 0 1 .4 1 .9a8.3 8.3 0 0 0 8.1 6.6c4 0 7.4-3 8.1-6.8.1-.5.6-1 1-.9h19.8c.5 0 .9.4 1 .9a8.3 8.3 0 0 0 8 6.5c4 0 7.3-2.8 8.1-6.6a1 1 0 0 1 1-.9h.7c4.4-.5 9.8-1.6 10.1-4.8.5-3.7.1-6.2-1-7.4-.4-.4-.8-.7-1.3-.8a1 1 0 0 1-.8-.9c-.3-1.6-1-3.9-3.2-4.8a63.8 63.8 0 0 0-14-2.6 23 23 0 0 1-3.6-4c-3-3.9-7.3-7.7-7.8-8.1l-.1-.1H27.9c-1.8 0-5 2.6-8.3 7a1 1 0 0 1-1.3.3c-.6-.3-1.3-.5-2-.5z" fill="#433b98"/><path d="M31.3 105c-4.6 0-8.7-3-10-7.4-7.6-.6-8.8-4.5-8.8-6.9V88c-1-.2-2.3-.8-3.2-2.1-1.8-2.4-1.9-6.2-.4-11.4 1.7-5.3 4.2-8 7.5-8 .7 0 1.4 0 2 .3 2.8-3.4 6.4-7.2 9.5-7.2h29.8l.6.3.5.3c.5.5 5 4.4 8 8.5 1.6 2 2.6 3 3 3.4a65 65 0 0 1 13.9 2.5c2.8 1.2 3.8 4 4.2 5.8.7.3 1.3.7 1.7 1.2 1.6 1.7 2.1 4.7 1.6 9-.4 3.7-4.4 6-12 6.7a10.4 10.4 0 0 1-10 7.5c-4.5 0-8.5-3-9.8-7.3h-18a10.4 10.4 0 0 1-10 7.6zm-15-36.5c-2.2 0-4 2.2-5.3 6.6-1.4 4.4-1.3 7.7 0 9.5.6.9 1.5 1.4 2.5 1.5.5 0 .8.4 1 .9l.1 3.7c0 3.7 4.2 4.7 7.6 4.8.5 0 1 .4 1 .9a8.3 8.3 0 0 0 8.1 6.6c4 0 7.4-3 8.1-6.8.1-.5.6-1 1-.9h19.8c.5 0 .9.4 1 .9a8.3 8.3 0 0 0 8 6.5c4 0 7.3-2.8 8.1-6.6a1 1 0 0 1 1-.9h.7c4.4-.5 9.8-1.6 10.1-4.8.5-3.7.1-6.2-1-7.4-.4-.4-.8-.7-1.3-.8a1 1 0 0 1-.8-.9c-.3-1.6-1-3.9-3.2-4.8a63.8 63.8 0 0 0-14-2.6 23 23 0 0 1-3.6-4c-3-3.9-7.3-7.7-7.8-8.1l-.1-.1H27.9c-1.8 0-5 2.6-8.3 7a1 1 0 0 1-1.3.3c-.6-.3-1.3-.5-2-.5z"/><path d="M89.1 90.5c.5-3.8 0-6.3-1-7.5-.4-.4-.8-.7-1.3-.8a1 1 0 0 1-.8-.8c-.3-1.7-1-4-3.2-4.9A63.8 63.8 0 0 0 68.7 74a23 23 0 0 1-3.5-4c-3-4-7.3-7.8-7.8-8.2H27.9c-1.6 0-4.2 2-7 5.4 7.7 6.2 18.3 12 30.5 16.5 13.8 5 27.2 7.2 37.7 6.8z" fill="#58538f"/><path d="M392.6 97.5a1 1 0 0 0-1 .7 6.7 6.7 0 0 1-6.3 4.7c-3 0-5.6-1.9-6.4-4.7a1 1 0 0 0-1-.7h-18.7a1 1 0 0 0-1 .7 6.7 6.7 0 0 1-12.8 0 1 1 0 0 0-1-.7c-7.3-.5-7.9-4.7-7.9-6 0-8 9-9.3 10-9.4.3 0 .6-.2.8-.5a25.2 25.2 0 0 1 21.2-10.8c13 0 19.6 8.3 21.3 10.8.1.3.4.4.7.5 1 .1 10 1.4 10 9.5 0 1.3-.5 5.5-7.9 5.9z" fill="#f54fa5"/><path d="M391.2 80a27.4 27.4 0 0 0-22.7-11.3A27.4 27.4 0 0 0 345.8 80c-8.4 1.2-11.4 7-11.4 11.6 0 1.2.5 7.1 9.2 8a8.8 8.8 0 0 0 8.2 5.5c3.5 0 6.8-2.3 8.1-5.5h17.2a8.8 8.8 0 0 0 8.1 5.5c3.6 0 6.9-2.3 8.2-5.6 8.8-.8 9.2-6.7 9.2-8 0-4.5-3-10.3-11.4-11.5zm1.4 17.5a1 1 0 0 0-1 .7 6.7 6.7 0 0 1-6.3 4.7c-3 0-5.6-1.9-6.4-4.7a1 1 0 0 0-1-.7h-18.7a1 1 0 0 0-1 .7 6.7 6.7 0 0 1-12.8 0 1 1 0 0 0-1-.7c-7.3-.5-7.9-4.7-7.9-6 0-8 9-9.3 10-9.4.3 0 .6-.2.8-.5a25.2 25.2 0 0 1 21.2-10.8c13 0 19.6 8.3 21.3 10.8.1.3.4.4.7.5 1 .1 10 1.4 10 9.5 0 1.3-.5 5.5-7.9 5.9z"/><defs><path id="SVGID_7_" d="M392.6 97.5a1 1 0 0 0-1 .7 6.7 6.7 0 0 1-6.3 4.7c-3 0-5.6-1.9-6.4-4.7a1 1 0 0 0-1-.7h-18.7a1 1 0 0 0-1 .7 6.7 6.7 0 0 1-12.8 0 1 1 0 0 0-1-.7c-7.3-.5-7.9-4.7-7.9-6 0-8 9-9.3 10-9.4.3 0 .6-.2.8-.5a25.2 25.2 0 0 1 21.2-10.8c13 0 19.6 8.3 21.3 10.8.1.3.4.4.7.5 1 .1 10 1.4 10 9.5 0 1.3-.5 5.5-7.9 5.9z"/></defs><clipPath id="SVGID_8_"><use xlink:href="#SVGID_7_" overflow="visible"/></clipPath><path d="M390.5 82a1 1 0 0 1-.7-.4 25.2 25.2 0 0 0-21.3-10.8c-8.6 0-14.3 3.6-17.7 6.8a122 122 0 0 0 49.6 15l.1-1c0-8-9-9.4-10-9.5z" clip-path="url(#SVGID_8_)" fill="#eb87bf"/><path class="st10" d="M49.2 12.3c-1 0-1.9.3-2.5.8-.6.5-1 1-1.2 1.7l-.8 2.7L40.4 32l-3.9-13.4-1-3.4c-.4-.7-.9-1.4-1.6-2-.7-.6-1.8-1-3-1-1.3 0-2.3.4-3 1a5 5 0 0 0-1.5 2c-.3.6-.6 1.7-1 3.4l-4 13.4-4.2-14.6c-.5-1.8-1-3-1.5-3.8-.5-.9-1.6-1.4-3-1.4-1.2 0-2 .4-2.9 1.2-.7.8-1.1 1.6-1.1 2.6 0 .7.3 2 1 3.7l6 18 .7 2 1 2.2a4.8 4.8 0 0 0 1.8 1.6 5 5 0 0 0 2.4.5c1.8 0 3.1-.6 3.9-1.8.7-1.1 1.3-2.7 1.8-4.8L31 25l3.7 12.5 1 3.3c.3.9.9 1.7 1.6 2.3.8.7 1.8 1 3.1 1s2.3-.3 3-1c.7-.5 1.2-1.2 1.6-2l1.2-3.3 6.1-18c.6-1.6 1-2.8 1-3.7 0-1-.5-1.9-1.3-2.6a3.9 3.9 0 0 0-2.7-1.1zm33.5 17.5c1.4-.7 2-2 2-4.2a13.3 13.3 0 0 0-6.6-11.4 17.5 17.5 0 0 0-14.3-.8 13.1 13.1 0 0 0-7.9 8.4c-.7 2-1 4-1 6.4a16 16 0 0 0 4.2 11.6c2.8 2.8 6.7 4.3 11.7 4.3 2.2 0 4.1-.3 5.8-.9 1.7-.5 3.1-1.3 4.2-2.1a10 10 0 0 0 2.6-2.8c.6-1 .9-2 .9-2.7 0-1-.3-1.7-1-2.3-.5-.5-1.3-.8-2.2-.8-.9 0-1.6.3-2.1.7a102.7 102.7 0 0 1-4.1 3.5 7.4 7.4 0 0 1-4.3 1.1c-1.2 0-2.4-.2-3.4-.8-1-.6-1.8-1.5-2.4-2.7a9 9 0 0 1-1-3.6h14c2.1 0 3.8-.3 5-.9zm-6.6-4.6H64c.3-2 1-3.6 2-4.7s2.4-1.7 4.1-1.7c1.8 0 3.2.6 4.3 1.7a8 8 0 0 1 1.8 4.7z"/><path d="M113.2 14.2c-2-1.2-4.3-1.8-6.9-1.8a12.3 12.3 0 0 0-9 3.6V6c0-1.4-.4-2.6-1.2-3.5A4 4 0 0 0 93 1.2c-1.3 0-2.4.4-3.1 1.4-.7.8-1 2.1-1 3.8v32.8c0 1.5.3 2.8 1 3.6.8.9 1.8 1.3 3 1.3a4 4 0 0 0 3.1-1.3c.6-.7 1-1.6 1.2-2.7l1 1c.5.4 1 1 1.8 1.4s1.7.9 2.8 1.2a13 13 0 0 0 9-.8c1.6-.8 3-2 4.1-3.4 1.2-1.5 2-3.2 2.6-5.2a22.2 22.2 0 0 0-.7-14.7c-1-2.3-2.6-4.1-4.6-5.4zm-2.6 14c0 2.9-.6 5-1.9 6.6a5.5 5.5 0 0 1-4.3 2.2 6 6 0 0 1-5-2.2c-1.2-1.4-1.8-3.6-1.8-6.4 0-2 .3-3.6.9-5a7.2 7.2 0 0 1 2.4-3.1c1-.8 2.1-1.1 3.5-1.1 1.2 0 2.3.3 3.2 1s1.7 1.8 2.2 3c.6 1.4.8 3 .8 5zm39.5-14.5a4 4 0 0 0-3.2-1.4c-1.3 0-2.4.5-3.2 1.4-.8.8-1.2 2.1-1.2 3.8v9c0 4.4-.3 6.1-.6 6.8a6 6 0 0 1-2.2 2.7c-1 .6-2 1-3.2 1-1.2 0-2-.3-2.7-.9a4.5 4.5 0 0 1-1.4-2.4 18 18 0 0 1-.4-4.2v-12c0-1.7-.4-3-1.2-3.8a4.2 4.2 0 0 0-3.2-1.4c-1.3 0-2.4.5-3.2 1.4-.8.8-1.2 2.1-1.2 3.8v14.8c0 3.1.5 5.5 1.5 7.2a9 9 0 0 0 3.6 3.4c1.5.8 3.3 1.2 5.2 1.2 1.6 0 3-.2 4.2-.6 1.2-.4 2.4-1 3.4-1.8.7-.5 1.3-1 1.9-1.7 0 1.1.5 2 1.1 2.8.8.9 1.8 1.3 3 1.3s2.3-.4 3-1.2c.8-.9 1.2-2.1 1.2-3.7V17.5c0-1.7-.4-3-1.2-3.9zm31.8-.8c-.7-.4-1.3-.6-2-.6a4 4 0 0 0-2.2.5c-.5.4-1 1-1.4 1.9-.4.8-.9 2-1.3 3.3l-5.4 15.5-5.8-16.7c-.4-1.4-1-2.5-1.6-3.2a3.6 3.6 0 0 0-3-1.3c-.6 0-1.4.2-2 .6-.7.4-1.2 1-1.6 1.6a4 4 0 0 0-.6 2c0 .8.3 1.8.9 3.2l9.1 23-.5 1.5a19 19 0 0 1-1.4 2.7 3 3 0 0 1-1 1c-.6.4-1.5.6-2.9.2L158 48a4 4 0 0 0-2.8.8c-.6.6-1 1.4-1 2.5 0 1.5.7 2.6 2 3.2 1.3.5 3 .8 5.3.8s4.2-.4 5.6-1.1a8.8 8.8 0 0 0 3.5-3.2c.8-1.4 1.7-3.2 2.5-5.5l9.8-25.6a22.6 22.6 0 0 0 1-3.6 3.9 3.9 0 0 0-2-3.4z"/><path class="st10" d="M214.3 33v-4-4.5c0-3-.4-5.3-1.2-7a7.8 7.8 0 0 0-4.3-4c-2-.8-4.7-1.2-8-1.2-3 0-5.6.4-7.7 1.2-2 .9-3.6 2-4.6 3.3a7 7 0 0 0-1.6 4.2c0 1 .4 2 1.2 2.6.7.6 1.6 1 2.6 1 1.1 0 1.9-.3 2.3-.8l1.5-2.1c.6-1 1.4-1.7 2.3-2.2.8-.5 2.2-.7 4-.7 2 0 3.3.4 3.8 1.1.6.7 1 2 1 3.5a81.7 81.7 0 0 1-8.6 2l-3.6.8c-2.4.5-4.3 1.6-5.7 3.1a8.7 8.7 0 0 0-.8 10.3 9 9 0 0 0 3.6 3.3c1.5.8 3.3 1.2 5.4 1.2 2.1 0 4.1-.4 6-1.1 1.5-.7 3.1-1.6 4.8-2.8.7 1 1.4 2 2 2.6 2 1.8 4.1 1.6 5.7.2.8-.8 1.3-1.6 1.3-2.6 0-.3-.1-1-.8-3.1-.4-1.5-.6-3-.6-4.3zm-8.6-3.8v.2a11 11 0 0 1-1 5.3c-.4 1-1.3 1.7-2.4 2.3-1.2.6-2.5 1-3.8 1-1.3 0-2.2-.4-3-1.1-.7-.7-1-1.5-1-2.5 0-.9.2-1.6.8-2 .7-.6 1.4-1 2-1.1a127 127 0 0 1 8.4-2zm42.6-8.4a9.6 9.6 0 0 0-1-3.2 8.9 8.9 0 0 0-3.8-3.9c-1.7-1-3.6-1.4-5.7-1.4-2 0-4 .5-5.7 1.3-1.2.7-2.3 1.6-3.4 2.7a5 5 0 0 0-.5-1.8 4 4 0 0 0-3.6-2.2c-1.3 0-2.3.5-3 1.3-.8.8-1.2 2-1.2 3.6V39c0 1.6.4 3 1.2 3.8a4 4 0 0 0 3.2 1.4c1.3 0 2.4-.4 3.2-1.3.8-.9 1.2-2.2 1.2-3.9v-9.4c0-3 .2-5 .5-6a6.2 6.2 0 0 1 2.2-3c1-.7 2-1 3.3-1 1.8 0 3 .5 3.5 1.5.7 1.3 1 3 1 5.4V39c0 1.6.4 3 1.2 3.8a4 4 0 0 0 3.2 1.4 4 4 0 0 0 3.2-1.4c.8-.8 1.2-2.1 1.2-3.8V25c0-1.6 0-3-.3-4.1zm10.3 34.5c2.4 0 4.3-.4 5.7-1.1a8.8 8.8 0 0 0 3.4-3.2c.9-1.3 1.7-3.2 2.6-5.5L280 20a21.9 21.9 0 0 0 1-3.6c0-.7-.1-1.4-.5-2a3.8 3.8 0 0 0-1.4-1.4c-.6-.4-1.3-.6-2-.6a4 4 0 0 0-2.1.5c-.6.4-1 1-1.5 1.9l-1.3 3.3-5.4 15.5-5.8-16.8a10 10 0 0 0-1.5-3.1 3.6 3.6 0 0 0-3-1.3c-.7 0-1.4.2-2.1.6-.7.4-1.2 1-1.6 1.6a4 4 0 0 0-.6 2c0 .8.3 1.8 1 3.2l9 23-.5 1.5-1.3 2.7a3 3 0 0 1-1.1 1c-.6.4-1.5.6-2.8.3-.5-.2-1-.2-1.4-.2a4 4 0 0 0-2.7.8c-.7.6-1 1.5-1 2.5 0 1.5.7 2.6 2 3.2 1.2.5 2.9.8 5.1.8h.1z"/><path d="M308.8 30.2c-1 0-1.7.3-2.4 1a8 8 0 0 0-1.6 2 8.6 8.6 0 0 1-2.6 3c-1 .6-2.2 1-3.5 1-1 0-2-.2-2.8-.6-.9-.4-1.6-1-2.2-1.7-.6-.8-1-1.8-1.4-2.8-.3-1.2-.5-2.4-.5-3.8 0-2.8.6-5 1.9-6.7a5.8 5.8 0 0 1 4.9-2.3c1.4 0 2.5.3 3.4 1 1 .6 1.8 1.6 2.7 3l1.5 1.6c.6.4 1.2.6 2 .6a4 4 0 0 0 2.9-1.1c.7-.8 1.2-1.7 1.2-2.8 0-1-.4-2-1-3.1-.7-1.1-1.6-2.1-2.8-3-1.1-1-2.6-1.8-4.3-2.4-1.7-.6-3.5-.9-5.5-.9-3.3 0-6 .7-8.4 2a13.5 13.5 0 0 0-5.5 5.8 18.6 18.6 0 0 0-1.8 8.4c0 4.7 1.4 8.5 4 11.4a15 15 0 0 0 11.4 4.2c2.2 0 4.3-.3 6-.9 1.9-.6 3.4-1.4 4.6-2.4 1.2-1 2.1-2.2 2.7-3.3.6-1.1 1-2.2 1-3.3a4 4 0 0 0-1.1-2.6 3.6 3.6 0 0 0-2.8-1.3zM345 33v-4-4.4c0-2.9-.4-5.2-1.2-7a8 8 0 0 0-4.3-4c-2-.8-4.7-1.2-8-1.2-3 0-5.6.4-7.7 1.2-2 .8-3.6 2-4.6 3.3a7 7 0 0 0-1.5 4.2c0 1 .3 1.9 1 2.6.8.6 1.7 1 2.7 1 1.1 0 1.9-.3 2.3-.8l1.5-2.1c.7-1 1.4-1.7 2.3-2.2.8-.5 2.2-.7 4-.7 2 0 3.3.4 3.8 1.1.6.7 1 1.9 1 3.5a123.3 123.3 0 0 1-8.6 2l-3.6.8c-2.4.5-4.3 1.6-5.7 3.1a8.2 8.2 0 0 0-2 5.7c0 1.6.3 3.2 1.2 4.6a9 9 0 0 0 3.6 3.3c1.5.8 3.4 1.2 5.4 1.2 2.2 0 4.2-.4 6-1.1 1.5-.7 3.1-1.6 4.8-2.8.7 1 1.4 2 2 2.6 2 1.8 4.1 1.6 5.7.2.9-.8 1.3-1.6 1.3-2.6 0-.3 0-1-.7-3.1-.5-1.5-.7-3-.7-4.4zm-8.6-3.7v.2a11 11 0 0 1-1 5.3c-.5 1-1.3 1.7-2.4 2.3-1.2.6-2.5.9-3.9.9-1.2 0-2.2-.3-3-1-.6-.7-1-1.5-1-2.5 0-.9.3-1.6.9-2 .6-.6 1.3-1 2-1.2a116.8 116.8 0 0 1 8.4-2zm33.2-8.1c.8 0 1.7-.4 2.4-1 .8-.8 1.2-1.7 1.2-2.8 0-1.6-.9-2.8-2.6-3.7-1.5-.9-3.2-1.3-4.9-1.3-1.7 0-3 .5-4.2 1.3l-1.9 2.2c-.1-.8-.4-1.5-.8-2-.7-1-1.8-1.5-3.2-1.5-2 0-4.3 1-4.3 5.7v20.9c0 1.6.4 3 1.2 3.8a4 4 0 0 0 3.1 1.4c1.3 0 2.4-.5 3.2-1.4.9-.9 1.3-2.2 1.3-3.8v-6.3c0-2.3 0-4.1.2-5.7.1-1.5.4-2.8.8-3.9a5 5 0 0 1 1.4-2.2c1-.9 2.6-1 4.9-.3 1.4.5 2 .6 2.2.6z"/><path class="st10" d="M371.4 34.5c-1.3 0-2.4.5-3.3 1.4-1 1-1.4 2-1.4 3.4 0 1.5.5 2.7 1.4 3.5 1 .8 2.1 1.3 3.4 1.3 1.3 0 2.4-.5 3.3-1.3 1-.9 1.4-2 1.4-3.6 0-1.3-.4-2.4-1.4-3.3-1-1-2-1.4-3.4-1.4zm34.2-4.3c-1 0-1.7.3-2.4.9a8 8 0 0 0-1.6 2.1 8.5 8.5 0 0 1-2.6 3c-1 .6-2.2 1-3.5 1-1 0-2-.3-2.8-.7-.9-.3-1.6-1-2.2-1.7-.6-.7-1-1.7-1.4-2.8-.3-1-.5-2.3-.5-3.7 0-2.8.6-5 1.9-6.7a5.8 5.8 0 0 1 4.8-2.3c1.5 0 2.6.3 3.5 1a11 11 0 0 1 2.7 2.9c.6.8 1 1.3 1.5 1.7a3 3 0 0 0 2 .6 4 4 0 0 0 2.8-1.1c.8-.8 1.2-1.7 1.2-2.8 0-1-.3-2-1-3.1-.6-1.1-1.5-2.1-2.7-3a16 16 0 0 0-9.9-3.3c-3.2 0-6 .7-8.4 2a13.4 13.4 0 0 0-5.4 5.8 18.6 18.6 0 0 0-1.8 8.5c0 4.7 1.3 8.5 4 11.3a15 15 0 0 0 11.4 4.2 19 19 0 0 0 6-.9c1.9-.6 3.4-1.4 4.6-2.4a11 11 0 0 0 2.7-3.3c.6-1.1 1-2.2 1-3.3a4 4 0 0 0-1.1-2.6 3.5 3.5 0 0 0-2.8-1.3zm-10.4 13.2zm43.5-26.7a14 14 0 0 0-5-3.3c-1.9-.7-4-1.1-6.4-1.1-2.3 0-4.4.4-6.4 1.1a13.9 13.9 0 0 0-8 8.3c-.8 2-1.1 4.2-1.1 6.5s.3 4.5 1 6.4a14.4 14.4 0 0 0 14.5 9.5c2.4 0 4.5-.4 6.4-1.2a14 14 0 0 0 8.2-8.3c.7-2 1-4.1 1-6.4 0-2.3-.3-4.5-1-6.4-.7-2-1.8-3.7-3.2-5zm-11.4 20.5a6 6 0 0 1-5.9-4.1 13 13 0 0 1-.8-5c0-1.8.3-3.4.9-4.9a6.6 6.6 0 0 1 2.3-3c1-.7 2.2-1 3.5-1 2.1 0 3.7.7 5 2.3 1.2 1.5 1.8 3.8 1.8 6.7 0 2.8-.6 5-1.8 6.7a6 6 0 0 1-5 2.3zm63-19.8c-.7-1.6-2-3-3.5-3.8-1.6-.8-3.5-1.3-5.7-1.3a11.1 11.1 0 0 0-8.8 4.1 9 9 0 0 0-3-2.9c-1.5-.8-3.3-1.2-5.3-1.2a11.8 11.8 0 0 0-8.5 3.6c-.2-1-.6-1.8-1.2-2.4a4.1 4.1 0 0 0-3-1.2c-1.3 0-2.3.4-3 1.3-.8.8-1.2 2-1.2 3.6v21.5c0 1.7.4 3 1.3 4 .8.9 2 1.4 3.2 1.4 1.4 0 2.5-.5 3.3-1.4.8-1 1.2-2.3 1.2-4V28.6c0-3 .4-5.4 1.1-7 .7-1.5 2-2.2 4.3-2.2 1 0 1.8.3 2.2.8.5.6.8 1.3.9 2.2l.2 4.3v12c0 1.7.4 3 1.2 4 .8.9 2 1.4 3.2 1.4 1.4 0 2.5-.5 3.3-1.4.9-1 1.3-2.3 1.3-4v-10c0-3.1.2-5.3.7-6.4a5.3 5.3 0 0 1 1.9-2.1c.8-.5 1.6-.8 2.5-.8 1 0 1.7.3 2.2.8.5.5.9 1.2 1 2l.2 3.9v12.6c0 1.7.4 3 1.2 4 .9.9 2 1.4 3.3 1.4 1.4 0 2.5-.5 3.3-1.4.8-1 1.3-2.3 1.3-4V24c0-3-.4-5.2-1-6.6zM17.3 139.7c-7.5 0-8.6-5-8.6-6.3a2 2 0 0 1 2-1.9c1.2 0 1.5.8 2.2 2.4.3.8 1.2 2.7 4.2 2.7 2 0 4.3-1 4.3-3.2 0-2.3-2.4-2.9-5-3.5-3.2-.7-4.2-1.2-5.2-2-1-.9-2-2.2-2-4.3 0-3.6 2.9-6 8-6 6.3 0 7.6 4 7.6 5.2 0 .8-.7 2-2 2-1.1 0-1.5-.7-2-2-.5-.6-1.2-2.1-4-2.1-1.7 0-3.6.8-3.6 2.5 0 1.9 2.3 2.4 4.6 3 3.5.8 4.8 1.4 6 2.3 1.6 1.3 2 3.4 2 4.4-.1 3.8-3 6.8-8.6 6.8zm18.5 0c-6 0-8-4.4-8-8 0-4.3 2.5-8.2 8-8.2 5.4 0 7.9 4 7.9 8.1 0 4.6-3 8.1-7.9 8.1zm0-13.2c-2.4 0-4 1.8-4 5.1 0 3.4 1.6 5.2 4 5.2s3.8-1.9 3.8-5.2-1.6-5.1-3.9-5.1zm39.9 11.7c1.2.7 1.4 1 1.4 1.6 0 .8-.7 1.5-1.4 1.5-1.3 0-3.5-1.5-5-2.7-2.1 1-4.5 1.1-5.2 1.1-8.3 0-10.5-6.2-10.5-11 0-6.1 3.2-11.1 10.3-11.1 8.6 0 10.6 6.5 10.6 11 0 .8 0 5.1-2.7 8 .7.6.9.7 2.4 1.6zm-4.2-9.5c0-1.7-.3-4.3-2-6a6 6 0 0 0-4.2-1.7c-1 0-6 .4-6 7.7 0 1.6.3 3.3 1.1 4.7 1 1.9 3 2.9 5 2.9 1.2 0 2-.4 2.2-.5-.4-.3-.8-.6-1.8-1-1.2-.6-1.6-1-1.6-1.6 0-.4.4-1 1-1 1.5 0 4 1.7 4.6 2.1a8.6 8.6 0 0 0 1.7-5.7zm7.3-1.9c0-1.3 0-2.2.6-2.7.3-.3.8-.6 1.4-.6.5 0 1 .2 1.5.6.5.5.5 1.4.5 2.8v5.5c0 1.5.1 2.3.5 3 .5.8 1.3 1.2 2.2 1.2 1.2 0 2.5-.7 3-1.7.3-.5.5-1.1.5-4.1v-4c0-1.3 0-2.2.6-2.7.3-.3.8-.6 1.4-.6.6 0 1 .2 1.5.6.5.5.5 1.4.5 2.7v9.8c0 .6 0 1.7-.2 2.2-.3.4-.7 1-1.6 1-1.7 0-2-1.5-1.9-2.8-.7.9-2.1 2.7-5.2 2.7-1.7 0-3.7-.7-4.5-2.2a7.2 7.2 0 0 1-.7-3.7v-7zm21.5 9.6c0 1.4 0 2.2-.6 2.7a2 2 0 0 1-1.4.6 2 2 0 0 1-1.5-.6c-.5-.5-.5-1.3-.5-2.7v-9.6c0-1.4 0-2.2.5-2.7.4-.3.9-.6 1.5-.6.8 0 1.5.5 1.7 1 .3.6.3 1.3.3 2.3v9.6zm-2-14.7a2 2 0 1 1 0-4c1 0 1.9 1 1.9 2s-.9 2-2 2zm12.5 18c-6.9 0-8-5.3-8-8 0-3.8 2-8.2 8-8.2 4.6 0 7 3 7 4.6 0 1-1 1.7-1.8 1.7s-1.2-.4-1.4-.7c-1-1.4-1.8-2.5-3.7-2.5-3.1 0-4 3-4 5 0 1 .1 2.2.8 3.3.5 1 1.5 1.8 3.2 1.8a4 4 0 0 0 3.2-1.7c1-1.5 1.2-2 2.2-2 1.1 0 1.7 1.1 1.7 1.8 0 1.6-2.1 5-7.2 5zm13.7-5.5v1.9c0 1.6 0 2.4-.6 3-.3.3-.7.6-1.4.6a2 2 0 0 1-1.7-1c-.3-.5-.3-1.1-.3-2.4v-15.2c0-1 0-1.8.3-2.5.3-.5 1-1 1.8-1 .7 0 1.2.3 1.5.7.4.6.4 1.4.4 2.7v8.7l4.5-4.6c1.2-1.3 1.6-1.6 2.3-1.6 1.2 0 1.8 1 1.8 1.6 0 .9-1.2 2-1.7 2.4l-2 2 4 6.4c.5.8.9 1.3.9 2 0 .6-.5 1.8-2 1.8-1 0-1.5-.8-2.1-1.8l-3.5-5.8-2.2 2zm15.5 5.5c-1.2 0-2.2-1-2.2-2.2a2.2 2.2 0 0 1 4.4 0c0 1.2-1 2.2-2.2 2.2zm23.7 0c-7.4 0-8.6-5-8.6-6.3a2 2 0 0 1 2-1.9c1.2 0 1.5.8 2.2 2.4.3.8 1.2 2.7 4.2 2.7 2 0 4.4-1 4.4-3.2 0-2.3-2.5-2.9-5.1-3.5-3.2-.7-4.2-1.2-5.2-2-1-.9-2-2.2-2-4.3 0-3.6 3-6 8-6 6.4 0 7.6 4 7.6 5.2 0 .8-.6 2-2 2-1.1 0-1.5-.7-2-2-.4-.6-1.1-2.1-3.9-2.1-1.8 0-3.7.8-3.7 2.5 0 1.9 2.4 2.4 4.6 3 3.6.8 4.8 1.4 6 2.3 1.6 1.3 2 3.4 2 4.4 0 3.8-3 6.8-8.5 6.8zm18.9 0c-6 0-8-4.4-8-8 0-4.3 2.5-8.2 8-8.2 5.4 0 7.9 4 7.9 8.1 0 4.6-3 8.1-7.9 8.1zm0-13.2c-2.4 0-4 1.8-4 5.1 0 3.4 1.6 5.2 4 5.2s3.8-1.9 3.8-5.2-1.6-5.1-3.9-5.1zm28 13.2c-7.5 0-8.6-5-8.6-6.3a2 2 0 0 1 2-1.9c1.1 0 1.5.8 2.1 2.4.4.8 1.3 2.7 4.3 2.7 2 0 4.3-1 4.3-3.2 0-2.3-2.4-2.9-5-3.5-3.2-.7-4.3-1.2-5.2-2-1.1-.9-2.1-2.2-2.1-4.3 0-3.6 3-6 8-6 6.4 0 7.7 4 7.7 5.2 0 .8-.7 2-2 2-1.2 0-1.5-.7-2.1-2-.4-.6-1-2.1-3.8-2.1-1.8 0-3.8.8-3.8 2.5 0 1.9 2.4 2.4 4.7 3 3.5.8 4.8 1.4 6 2.3 1.6 1.3 1.9 3.4 1.9 4.4 0 3.8-3 6.8-8.5 6.8zm15.4-3.3c0 1.4 0 2.2-.5 2.7a2 2 0 0 1-1.5.6 2 2 0 0 1-1.4-.6c-.6-.5-.6-1.3-.6-2.7v-9.6c0-1.4 0-2.2.6-2.7.3-.3.8-.6 1.4-.6.8 0 1.5.5 1.7 1 .3.6.3 1.3.3 2.3v9.6zm-2-14.7a2 2 0 1 1 0-4c1 0 2 1 2 2s-1 2-2 2zm27.6 14.6c0 1.5 0 2.2-.5 2.8a2 2 0 0 1-1.5.6 2 2 0 0 1-1.4-.6c-.5-.6-.6-1.4-.6-2.8v-5.8c0-2 0-3.9-2.2-3.9-1.3 0-2.3.8-2.7 1.7-.4.9-.5 1.7-.5 3.6v4.4c0 1.5 0 2.2-.5 2.8a2 2 0 0 1-1.5.6c-2 0-2-1.8-2-3.4v-5.5c0-2.4.1-4.2-2.1-4.2-3.3 0-3.3 3-3.3 5.2v4.5c0 1.5 0 2.2-.5 2.8a2 2 0 0 1-3 0c-.5-.6-.5-1.4-.5-2.8v-9.7c0-1.3 0-2 .5-2.5a1.9 1.9 0 0 1 3 .3c.3.6.3 1.1.3 1.6 1.9-2.3 3.7-2.5 4.8-2.5 3 0 4 1.8 4.4 2.5 1.5-1.8 3-2.5 4.8-2.5 1.3 0 3 .5 3.9 1.6.9 1.2 1.1 2.2 1.1 4.3v6.9zm12-12.8c4.3 0 6.6 3.8 6.6 8.3 0 4-2 8-6.6 8-3 0-4.4-1.6-5.3-2.6v5.2c0 1.7 0 3.2-2 3.2-.6 0-1.5-.3-1.8-1.3-.2-.5-.2-.9-.2-2v-15.7c0-1.2 0-2 .6-2.6.4-.3 1-.5 1.4-.5 2 0 2 1.6 2 2.3v.4c1-1 2.3-2.7 5.2-2.7zm-5 8c0 3.1 1.5 5.2 3.9 5.2 2 0 3.6-1.6 3.6-5 0-2.6-.7-3.4-1.2-4a3 3 0 0 0-2.4-1.1c-2 0-4 1.4-4 4.8zm18.5 5c0 1.3 0 2-.6 2.6a2 2 0 0 1-1.4.6 2 2 0 0 1-1.5-.6c-.5-.5-.5-1.3-.5-2.7V121c0-1.5 0-2.2.5-2.7a2 2 0 0 1 1.5-.6c.5 0 1 .2 1.4.6.6.5.6 1.3.6 2.7v15.5zm7-4c0 3.5 2.3 4.6 4 4.6 2 0 3.3-1.3 3.8-1.8.8-.8 1.1-1 1.8-1s1.3.4 1.3 1.1c0 1.2-2 4.3-6.8 4.3-1.1 0-3-.2-4.6-1-3.3-2-3.5-5.8-3.5-7.1 0-4.2 2.3-8.1 7.8-8.1 5.7 0 7.3 4.6 7.3 6.7 0 2.4-2 2.4-3.3 2.4h-7.8zm7.3-2.2c-.1-1-.2-1.7-.7-2.4-.8-1.3-1.9-1.6-3-1.6-1.4 0-2.4.7-3 1.9-.4.7-.5 1.6-.6 2.1h7.3zm8.3 9.4c-1.2 0-2.2-1-2.2-2.2a2.2 2.2 0 0 1 4.4 0c0 1.2-1 2.2-2.2 2.2zm23.7 0c-7.4 0-8.6-5-8.6-6.3a2 2 0 0 1 2-1.9c1.2 0 1.5.8 2.2 2.4.3.8 1.2 2.7 4.2 2.7 2 0 4.4-1 4.4-3.2 0-2.3-2.5-2.9-5.1-3.5-3.2-.7-4.2-1.2-5.2-2-1-.9-2-2.2-2-4.3 0-3.6 3-6 8-6 6.4 0 7.6 4 7.6 5.2 0 .8-.7 2-2 2-1.1 0-1.5-.7-2-2-.4-.6-1.2-2.1-3.9-2.1-1.8 0-3.7.8-3.7 2.5 0 1.9 2.4 2.4 4.6 3 3.6.8 4.8 1.4 6 2.3 1.6 1.3 2 3.4 2 4.4 0 3.8-3 6.8-8.5 6.8zm18.9 0c-6 0-8-4.4-8-8 0-4.3 2.5-8.2 7.9-8.2s8 4 8 8.1c0 4.6-3 8.1-8 8.1zm-.1-13.2c-2.3 0-4 1.8-4 5.1 0 3.4 1.6 5.2 4 5.2s3.9-1.9 3.9-5.2-1.6-5.1-4-5.1zm28 13.2c-7.4 0-8.6-5-8.6-6.3a2 2 0 0 1 2-1.9c1.2 0 1.5.8 2.2 2.4.4.8 1.3 2.7 4.2 2.7 2.1 0 4.4-1 4.4-3.2 0-2.3-2.4-2.9-5.1-3.5-3.1-.7-4.2-1.2-5.1-2-1.1-.9-2.1-2.2-2.1-4.3 0-3.6 3-6 8-6 6.4 0 7.7 4 7.7 5.2 0 .8-.7 2-2 2-1.2 0-1.6-.7-2.1-2-.4-.6-1.1-2.1-3.9-2.1-1.8 0-3.7.8-3.7 2.5 0 1.9 2.4 2.4 4.6 3 3.6.8 4.9 1.4 6 2.3 1.6 1.3 2 3.4 2 4.4 0 3.8-3 6.8-8.5 6.8zm18.6 0c-6.8 0-7.9-5.3-7.9-8 0-3.8 2-8.2 8-8.2 4.5 0 6.9 3 6.9 4.6 0 1-.9 1.7-1.8 1.7-.7 0-1.2-.4-1.4-.7-.9-1.4-1.8-2.5-3.7-2.5-3.1 0-4 3-4 5 0 1 .2 2.2.8 3.3.6 1 1.6 1.8 3.2 1.8a4 4 0 0 0 3.2-1.7c1-1.5 1.2-2 2.2-2 1.1 0 1.7 1.1 1.7 1.8 0 1.6-2 5-7.2 5zm23.6-2.8c0 .9 0 2.8-2 2.8s-2-1.8-2-2.8v-6.3c0-1.3 0-4-2.6-4-1.3 0-2.5.8-3 1.7-.3.7-.6 1.2-.6 3.7v4.6c0 1.3 0 3.1-2 3.1s-2-1.8-2-3v-15.8c0-1.3 0-1.7.3-2.3.2-.6 1-1 1.7-1 .5 0 1 .2 1.4.6.6.6.6 1.3.6 3v4.7a6 6 0 0 1 4.9-2.4c1.6 0 3.7.6 4.6 2.5.3.7.7 1.4.7 3.7v7.2zm10.3 2.8c-6 0-8-4.4-8-8 0-4.3 2.5-8.2 8-8.2 5.4 0 7.9 4 7.9 8.1 0 4.6-3 8.1-7.9 8.1zm0-13.2c-2.4 0-4 1.8-4 5.1 0 3.4 1.6 5.2 4 5.2s3.8-1.9 3.8-5.2-1.5-5.1-3.9-5.1zm11.6-3.8c0-2.6.5-5.1 5-5.1 2.9 0 3.7.7 3.7 1.7 0 .6-.4 1.3-1.3 1.3l-1.5-.1c-2 0-2 1.3-2 2.4v1h1.1c.8 0 2.2 0 2.2 1.4s-1.3 1.4-2.2 1.4h-1v9.7c0 .8.2 3.3-2 3.3-1.9 0-2-1.6-2-3.3v-9.7h-1.1c-.4 0-1.8.1-1.8-1.4 0-.4.1-.7.5-1 .3-.4 1-.4 1.5-.4h1v-1.2zm14.4 13.7c0 1.4 0 2.2-.5 2.7a2 2 0 0 1-1.5.6 2 2 0 0 1-1.4-.6c-.6-.5-.6-1.3-.6-2.7v-9.6c0-1.4 0-2.2.6-2.7.3-.3.8-.6 1.4-.6.8 0 1.5.5 1.7 1 .3.6.3 1.3.3 2.3v9.6zm-2-14.7a2 2 0 1 1 0-4c1 0 2 1 2 2s-1 2-2 2zm8.7 10.9c0 3.4 2.3 4.5 4 4.5 2 0 3.3-1.3 3.8-1.8.8-.8 1.1-1 1.8-1s1.3.4 1.3 1.1c0 1.2-2 4.3-6.8 4.3-1.1 0-3-.2-4.6-1-3.3-2-3.5-5.8-3.5-7.1 0-4.2 2.3-8.1 7.8-8.1 5.7 0 7.3 4.6 7.3 6.7 0 2.4-2 2.4-3.3 2.4h-7.8zm7.3-2.3c-.1-1-.2-1.7-.7-2.4-.8-1.3-1.9-1.6-3-1.6-1.5 0-2.4.7-3 1.9-.4.7-.6 1.6-.6 2.1h7.3zm10 6.1c0 1.4 0 2.2-.5 2.7a2 2 0 0 1-1.4.6 2 2 0 0 1-1.5-.6c-.5-.5-.5-1.3-.5-2.7V121c0-1.5 0-2.2.5-2.7a2 2 0 0 1 1.5-.6c.5 0 1 .2 1.4.6.6.5.6 1.3.6 2.7v15.5zm14.7.7c-.9 1-2.2 2.6-5.2 2.6-4.4 0-6.7-3.8-6.7-8.3 0-4 2-7.9 6.7-7.9 2.9 0 4.3 1.5 5.2 2.5v-5.2c0-1.7 0-3.2 2-3.2.6 0 1.5.3 1.8 1.3.2.5.2.9.2 2v15.7c0 1.2 0 2-.6 2.6-.4.4-1 .5-1.4.5-2 0-2-1.6-2-2.3v-.4zm-.2-5.3c0-3.2-1.6-5.3-4-5.3-2 0-3.6 1.6-3.6 5 0 2.6.6 3.5 1.2 4 1 1 1.8 1.2 2.5 1.2 1.9 0 3.9-1.4 3.9-5zm10.6 8c-1.2 0-2.2-1-2.2-2.3a2.2 2.2 0 0 1 4.4 0c0 1.2-1 2.2-2.2 2.2z"/></g></svg>